<?xml version="1.0" encoding="UTF-8"?>
<svg xmlns="http://www.w3.org/2000/svg" xmlns:xlink="http://www.w3.org/1999/xlink" width="32px" height="32px" viewBox="0 0 32 32" version="1.1">
<defs>
<clipPath id="clip1">
  <path d="M 1 1 L 11 1 L 11 11 L 1 11 Z M 1 1 "/>
</clipPath>
<clipPath id="clip2">
  <path d="M 1 6.332031 C 1 3.820312 1 2.5625 1.78125 1.78125 C 2.5625 1 3.820312 1 6.332031 1 L 25.667969 1 C 28.179688 1 29.4375 1 30.21875 1.78125 C 31 2.5625 31 3.820312 31 6.332031 L 31 25.667969 C 31 28.179688 31 29.4375 30.21875 30.21875 C 29.4375 31 28.179688 31 25.667969 31 L 6.332031 31 C 3.820312 31 2.5625 31 1.78125 30.21875 C 1 29.4375 1 28.179688 1 25.667969 Z M 1 6.332031 "/>
</clipPath>
<clipPath id="clip3">
  <path d="M 11 1 L 21 1 L 21 11 L 11 11 Z M 11 1 "/>
</clipPath>
<clipPath id="clip4">
  <path d="M 1 6.332031 C 1 3.820312 1 2.5625 1.78125 1.78125 C 2.5625 1 3.820312 1 6.332031 1 L 25.667969 1 C 28.179688 1 29.4375 1 30.21875 1.78125 C 31 2.5625 31 3.820312 31 6.332031 L 31 25.667969 C 31 28.179688 31 29.4375 30.21875 30.21875 C 29.4375 31 28.179688 31 25.667969 31 L 6.332031 31 C 3.820312 31 2.5625 31 1.78125 30.21875 C 1 29.4375 1 28.179688 1 25.667969 Z M 1 6.332031 "/>
</clipPath>
<clipPath id="clip5">
  <path d="M 21 1 L 31 1 L 31 11 L 21 11 Z M 21 1 "/>
</clipPath>
<clipPath id="clip6">
  <path d="M 1 6.332031 C 1 3.820312 1 2.5625 1.78125 1.78125 C 2.5625 1 3.820312 1 6.332031 1 L 25.667969 1 C 28.179688 1 29.4375 1 30.21875 1.78125 C 31 2.5625 31 3.820312 31 6.332031 L 31 25.667969 C 31 28.179688 31 29.4375 30.21875 30.21875 C 29.4375 31 28.179688 31 25.667969 31 L 6.332031 31 C 3.820312 31 2.5625 31 1.78125 30.21875 C 1 29.4375 1 28.179688 1 25.667969 Z M 1 6.332031 "/>
</clipPath>
<clipPath id="clip7">
  <path d="M 1 11 L 31 11 L 31 21 L 1 21 Z M 1 11 "/>
</clipPath>
<clipPath id="clip8">
  <path d="M 1 6.332031 C 1 3.820312 1 2.5625 1.78125 1.78125 C 2.5625 1 3.820312 1 6.332031 1 L 25.667969 1 C 28.179688 1 29.4375 1 30.21875 1.78125 C 31 2.5625 31 3.820312 31 6.332031 L 31 25.667969 C 31 28.179688 31 29.4375 30.21875 30.21875 C 29.4375 31 28.179688 31 25.667969 31 L 6.332031 31 C 3.820312 31 2.5625 31 1.78125 30.21875 C 1 29.4375 1 28.179688 1 25.667969 Z M 1 6.332031 "/>
</clipPath>
<clipPath id="clip9">
  <path d="M 1 21 L 21 21 L 21 31 L 1 31 Z M 1 21 "/>
</clipPath>
<clipPath id="clip10">
  <path d="M 1 6.332031 C 1 3.820312 1 2.5625 1.78125 1.78125 C 2.5625 1 3.820312 1 6.332031 1 L 25.667969 1 C 28.179688 1 29.4375 1 30.21875 1.78125 C 31 2.5625 31 3.820312 31 6.332031 L 31 25.667969 C 31 28.179688 31 29.4375 30.21875 30.21875 C 29.4375 31 28.179688 31 25.667969 31 L 6.332031 31 C 3.820312 31 2.5625 31 1.78125 30.21875 C 1 29.4375 1 28.179688 1 25.667969 Z M 1 6.332031 "/>
</clipPath>
<clipPath id="clip11">
  <path d="M 21 21 L 31 21 L 31 31 L 21 31 Z M 21 21 "/>
</clipPath>
<clipPath id="clip12">
  <path d="M 1 6.332031 C 1 3.820312 1 2.5625 1.78125 1.78125 C 2.5625 1 3.820312 1 6.332031 1 L 25.667969 1 C 28.179688 1 29.4375 1 30.21875 1.78125 C 31 2.5625 31 3.820312 31 6.332031 L 31 25.667969 C 31 28.179688 31 29.4375 30.21875 30.21875 C 29.4375 31 28.179688 31 25.667969 31 L 6.332031 31 C 3.820312 31 2.5625 31 1.78125 30.21875 C 1 29.4375 1 28.179688 1 25.667969 Z M 1 6.332031 "/>
</clipPath>
</defs>
<g id="surface1">
<g clip-path="url(#clip1)" clip-rule="nonzero">
<g clip-path="url(#clip2)" clip-rule="nonzero">
<path style=" stroke:none;fill-rule:nonzero;fill:rgb(73.333335%,63.921571%,88.627452%);fill-opacity:1;" d="M 1 1 L 10.554688 1 L 10.554688 10.554688 L 1 10.554688 Z M 1 1 "/>
</g>
</g>
<g clip-path="url(#clip3)" clip-rule="nonzero">
<g clip-path="url(#clip4)" clip-rule="nonzero">
<path style=" stroke:none;fill-rule:nonzero;fill:rgb(70.19608%,87.450981%,62.7451%);fill-opacity:1;" d="M 11.222656 1 L 20.777344 1 L 20.777344 10.554688 L 11.222656 10.554688 Z M 11.222656 1 "/>
</g>
</g>
<g clip-path="url(#clip5)" clip-rule="nonzero">
<g clip-path="url(#clip6)" clip-rule="nonzero">
<path style=" stroke:none;fill-rule:nonzero;fill:rgb(58.823532%,74.509805%,100%);fill-opacity:1;" d="M 21.445312 1 L 31 1 L 31 10.554688 L 21.445312 10.554688 Z M 21.445312 1 "/>
</g>
</g>
<g clip-path="url(#clip7)" clip-rule="nonzero">
<g clip-path="url(#clip8)" clip-rule="nonzero">
<path style=" stroke:none;fill-rule:nonzero;fill:rgb(100%,42.745098%,16.078432%);fill-opacity:1;" d="M 1 11.222656 L 10.554688 11.222656 L 10.554688 20.777344 L 1 20.777344 Z M 11.222656 11.222656 L 20.777344 11.222656 L 20.777344 20.777344 L 11.222656 20.777344 Z M 21.445312 11.222656 L 31 11.222656 L 31 20.777344 L 21.445312 20.777344 Z M 21.445312 11.222656 "/>
</g>
</g>
<g clip-path="url(#clip9)" clip-rule="nonzero">
<g clip-path="url(#clip10)" clip-rule="nonzero">
<path style=" stroke:none;fill-rule:nonzero;fill:rgb(29.803923%,54.901963%,90.196079%);fill-opacity:1;" d="M 1 21.445312 L 10.554688 21.445312 L 10.554688 31 L 1 31 Z M 11.222656 21.445312 L 20.777344 21.445312 L 20.777344 31 L 11.222656 31 Z M 11.222656 21.445312 "/>
</g>
</g>
<g clip-path="url(#clip11)" clip-rule="nonzero">
<g clip-path="url(#clip12)" clip-rule="nonzero">
<path style=" stroke:none;fill-rule:nonzero;fill:rgb(100%,70.19608%,11.764706%);fill-opacity:1;" d="M 21.445312 21.445312 L 31 21.445312 L 31 31 L 21.445312 31 Z M 21.445312 21.445312 "/>
</g>
</g>
</g>
</svg>
